<?xml version="1.0"?>
<svg xmlns="http://www.w3.org/2000/svg" xmlns:xlink="http://www.w3.org/1999/xlink" version="1.1" id="Capa_1" x="0px" y="0px" viewBox="0 0 512.001 512.001" style="enable-background:new 0 0 512.001 512.001;" xml:space="preserve" width="512px" height="512px" class=""><g><g>
	<g>
		<path d="M437.836,22.068h-99.553c-5.534,0-10.022,4.488-10.022,10.022c0,5.534,4.488,10.022,10.022,10.022h99.553    c29.841,0,54.12,24.279,54.12,54.12v168.372c0,29.841-24.279,54.12-54.12,54.12h-58.767c-2.648,0-5.186,1.047-7.065,2.912    l-40.403,40.149v-33.039c0-5.534-4.488-10.022-10.022-10.022H165.234c-29.841,0-54.12-24.279-54.12-54.12V96.232    c0-29.841,24.279-54.12,54.12-54.12h95.544c5.534,0,10.022-4.488,10.022-10.022c0-5.534-4.488-10.022-10.022-10.022h-95.544    c-40.894,0-74.164,33.269-74.164,74.164v9.867H74.164C33.269,106.099,0,139.368,0,180.263v178.383    c0,40.894,33.269,74.164,74.164,74.164h54.635l54.559,54.214c1.915,1.902,4.469,2.912,7.067,2.912c1.297,0,2.605-0.252,3.849-0.77    c3.737-1.554,6.172-5.205,6.172-9.252V432.81h146.323c40.894,0,74.164-33.269,74.164-74.164v-19.878h16.906    c40.894,0,74.164-33.269,74.164-74.164V96.232C512,55.338,478.731,22.068,437.836,22.068z M400.886,358.646    c0,29.841-24.279,54.12-54.12,54.12H190.421c-5.534,0-10.022,4.488-10.022,10.022v33.039l-40.403-40.149    c-1.878-1.865-4.417-2.912-7.065-2.912H74.164c-2.033,0-4.038-0.122-6.013-0.342V352.78c0-5.534-4.488-10.022-10.022-10.022    s-10.022,4.488-10.022,10.022v53.281c-16.713-9.221-28.062-27.016-28.062-47.416V180.263c0-29.841,24.279-54.12,54.12-54.12H91.07    v138.461c0,40.894,33.269,74.164,74.164,74.164h146.323v47.104c0,4.048,2.435,7.699,6.172,9.252    c1.245,0.518,2.552,0.77,3.849,0.77c2.598,0,5.151-1.01,7.067-2.912l54.559-54.214h17.683V358.646z" data-original="#000000" class="active-path" data-old_color="#000000" fill="#FFFFFF"/>
	</g>
</g><g>
	<g>
		<path d="M308.62,25.002c-1.863-1.864-4.44-2.936-7.085-2.936c-2.636,0-5.221,1.071-7.086,2.936s-2.937,4.45-2.937,7.086    c0,2.636,1.071,5.222,2.937,7.085c1.864,1.875,4.45,2.938,7.086,2.938s5.222-1.063,7.085-2.938    c1.864-1.863,2.938-4.449,2.938-7.085C311.557,29.452,310.485,26.866,308.62,25.002z" data-original="#000000" class="active-path" data-old_color="#000000" fill="#FFFFFF"/>
	</g>
</g><g>
	<g>
		<path d="M336.091,232.695l-42.027-112.248c-1.465-3.914-5.207-6.507-9.386-6.507s-7.92,2.594-9.386,6.508l-42.026,112.248    c-1.94,5.183,0.688,10.959,5.873,12.899c1.158,0.434,2.344,0.639,3.512,0.639c4.06,0,7.88-2.484,9.388-6.511l14.824-39.594h35.632    l14.825,39.595c1.94,5.181,7.71,7.812,12.901,5.871C335.404,243.654,338.033,237.879,336.091,232.695z M274.369,180.084    l10.311-27.54l10.312,27.54H274.369z" data-original="#000000" class="active-path" data-old_color="#000000" fill="#FFFFFF"/>
	</g>
</g><g>
	<g>
		<path d="M437.662,229.128l-4.698-4.707c2.889-5.558,4.533-11.864,4.533-18.55v-51.571h0.001c0-22.254-18.105-40.36-40.36-40.36    c-22.255,0-40.36,18.105-40.36,40.36v51.572c0,22.255,18.105,40.36,40.36,40.36c8.302,0,16.026-2.523,22.45-6.838l3.89,3.897    c1.957,1.96,4.525,2.941,7.093,2.941c2.563,0,5.124-0.977,7.081-2.929C441.566,239.391,441.572,233.046,437.662,229.128z     M417.453,205.871c0,0.951-0.088,1.88-0.215,2.797l-6.82-6.833c-3.91-3.916-10.256-3.921-14.174-0.012    c-3.917,3.911-3.923,10.256-0.012,14.174l8.637,8.652c-2.385,0.985-4.994,1.537-7.731,1.537c-11.203,0-20.316-9.114-20.316-20.316    v-51.572c0-11.202,9.114-20.316,20.316-20.316c11.202,0,20.316,9.114,20.316,20.316V205.871z" data-original="#000000" class="active-path" data-old_color="#000000" fill="#FFFFFF"/>
	</g>
</g><g>
	<g>
		<path d="M209.061,180.084h-34.556v-41.586c0-2.49,2.012-4.515,4.486-4.515h30.071c5.534,0,10.022-4.488,10.022-10.022    c0-5.534-4.488-10.022-10.022-10.022H178.99c-13.526,0-24.53,11.017-24.53,24.559v97.711c0,5.534,4.488,10.022,10.022,10.022    s10.022-4.488,10.022-10.022v-36.081h34.556c5.534,0,10.022-4.488,10.022-10.022S214.595,180.084,209.061,180.084z" data-original="#000000" class="active-path" data-old_color="#000000" fill="#FFFFFF"/>
	</g>
</g><g>
	<g>
		<path d="M65.213,308.108c-1.864-1.865-4.45-2.937-7.086-2.937c-2.636,0-5.221,1.072-7.086,2.937    c-1.863,1.863-2.936,4.449-2.936,7.085c0,2.636,1.072,5.222,2.936,7.086c1.864,1.864,4.45,2.936,7.086,2.936    c2.636,0,5.222-1.071,7.086-2.936c1.863-1.864,2.936-4.45,2.936-7.086C68.15,312.557,67.077,309.971,65.213,308.108z" data-original="#000000" class="active-path" data-old_color="#000000" fill="#FFFFFF"/>
	</g>
</g></g> </svg>
